<svg width="45" height="45" viewBox="0 0 45 45" fill="none" xmlns="http://www.w3.org/2000/svg">
<rect width="45" height="45" rx="22.5" fill="#272727"/>
<path d="M22.4997 12.646C22.8794 12.646 23.1872 12.9538 23.1872 13.3335V14.2502C23.1872 14.6299 22.8794 14.9377 22.4997 14.9377C22.12 14.9377 21.8122 14.6299 21.8122 14.2502V13.3335C21.8122 12.9538 22.12 12.646 22.4997 12.646Z" fill="white"/>
<path d="M22.4997 17.2293C19.5887 17.2293 17.2288 19.5892 17.2288 22.5002C17.2288 25.4112 19.5887 27.771 22.4997 27.771C25.4107 27.771 27.7705 25.4112 27.7705 22.5002C27.7705 19.5892 25.4107 17.2293 22.4997 17.2293Z" fill="white"/>
<path d="M16.504 15.5322C16.2355 15.2638 15.8002 15.2638 15.5317 15.5322C15.2633 15.8007 15.2633 16.236 15.5317 16.5045L16.1799 17.1527C16.4484 17.4212 16.8837 17.4212 17.1522 17.1527C17.4207 16.8842 17.4207 16.4489 17.1522 16.1804L16.504 15.5322Z" fill="white"/>
<path d="M32.3538 22.5002C32.3538 22.8799 32.046 23.1877 31.6663 23.1877H30.7497C30.37 23.1877 30.0622 22.8799 30.0622 22.5002C30.0622 22.1205 30.37 21.8127 30.7497 21.8127H31.6663C32.046 21.8127 32.3538 22.1205 32.3538 22.5002Z" fill="white"/>
<path d="M29.4676 16.5045C29.7361 16.236 29.7361 15.8007 29.4676 15.5322C29.1991 15.2637 28.7638 15.2637 28.4953 15.5322L27.8471 16.1804C27.5787 16.4489 27.5787 16.8842 27.8471 17.1527C28.1156 17.4212 28.5509 17.4212 28.8194 17.1527L29.4676 16.5045Z" fill="white"/>
<path d="M22.4997 30.0627C22.8794 30.0627 23.1872 30.3705 23.1872 30.7502V31.6668C23.1872 32.0465 22.8794 32.3543 22.4997 32.3543C22.12 32.3543 21.8122 32.0465 21.8122 31.6668V30.7502C21.8122 30.3705 22.12 30.0627 22.4997 30.0627Z" fill="white"/>
<path d="M28.8195 27.8476C28.551 27.5792 28.1157 27.5792 27.8472 27.8476C27.5787 28.1161 27.5787 28.5514 27.8472 28.8199L28.4954 29.4681C28.7639 29.7366 29.1992 29.7366 29.4677 29.4681C29.7361 29.1996 29.7361 28.7643 29.4677 28.4958L28.8195 27.8476Z" fill="white"/>
<path d="M14.9372 22.5002C14.9372 22.8799 14.6294 23.1877 14.2497 23.1877H13.333C12.9533 23.1877 12.6455 22.8799 12.6455 22.5002C12.6455 22.1205 12.9533 21.8127 13.333 21.8127H14.2497C14.6294 21.8127 14.9372 22.1205 14.9372 22.5002Z" fill="white"/>
<path d="M17.1521 28.8199C17.4206 28.5514 17.4206 28.1161 17.1521 27.8476C16.8836 27.5792 16.4483 27.5792 16.1799 27.8476L15.5317 28.4958C15.2632 28.7643 15.2632 29.1996 15.5317 29.4681C15.8002 29.7366 16.2355 29.7366 16.5039 29.4681L17.1521 28.8199Z" fill="white"/>
</svg>
